<svg xmlns="http://www.w3.org/2000/svg" viewBox="0 0 848 786">
    <defs>
        <style>.a{fill:#0c374c;}</style>
    </defs>
    <path class="a"
          d="M314.46,194.44,467.94,392l43.42,55.89,7.71-13.17A549.4,549.4,0,0,0,322.7,564.05a567.21,567.21,0,0,0-44.82,51.88c-2.76,3.63.28,8.16,3,10.43,4.53,3.73,12.33,5.63,17.93,6.22,11.64,1.23,29,.95,36.9-9.46q8.85-11.64,18.3-22.8,4.21-5,8.54-9.8c1.44-1.61,2.9-3.22,4.36-4.82-.21.23,3.4-3.68,1.8-2-1.31,1.42,1.57-1.66,1.82-1.93a536.36,536.36,0,0,1,86.5-73.51q12.07-8.25,24.6-15.81c1.84-1.11,3.66-2.37,5.58-3.33-4.51,2.27,1.14-.64,2.34-1.33q6.36-3.6,12.82-7a530.27,530.27,0,0,1,59.1-26.91c4.31-1.66,12-7.67,7.72-13.17L415.74,243.13l-43.42-55.89c-7.83-10.08-25.23-11.19-36.9-9.45-5.94.88-13.33,2.06-17.93,6.22-2.76,2.49-6,6.62-3,10.43Z"/>
</svg>