<svg xmlns="http://www.w3.org/2000/svg" viewBox="0 0 848 786">
    <defs>
        <style>.a{fill:#0c374c;}</style>
    </defs>
    <path class="a"
          d="M159.18,211.24A1915.2,1915.2,0,0,0,172,540.17q5.81,46.08,13.84,91.86c.47,2.66,5.5,3.23,7.43,3.55a46.9,46.9,0,0,0,15.14,0,1364.11,1364.11,0,0,1,358.23-11.89c33.6,3.32,67.06,8,100.33,13.8,2.17.37,23.62,1.61,22.57-3.55a2638,2638,0,0,1-45.28-327.55q-3.5-46.86-5.31-93.82c-.1-2.6-5.83-3.29-7.43-3.55l-187-30.88-92.5-15.27c-29.65-4.9-59.38-11-89.32-13.88-29-2.79-62.49-1.77-86.3,17.24-3.82,3.05,9.61,5,10.48,5.06,5.48.42,13.82.82,18.45-2.88a56.52,56.52,0,0,1,28.49-11.86c-1.67.2.82-.07.94-.08,1.53-.11,3-.24,4.58-.3-2.93.12,2.15,0,2.19,0,1,0,2.07,0,3.1,0,5.05.07-2.79-.27,2.26.1,1.57.12,3.14.2,4.7.33,2.87.24,5.61.51,7.37.74,27.72,3.57,55.27,8.85,82.84,13.4L518,199.87l98.4,16.25L609,212.57a2637.56,2637.56,0,0,0,33.54,329q7.69,46.37,17,92.42l22.57-3.55a1455.79,1455.79,0,0,0-381.23-15.7q-54,4.89-107.61,13.79L215.84,632A1916.44,1916.44,0,0,1,187,304.12q-.06-46.46,2.14-92.88c.26-5.56-29.71-6.36-30,0Z"/>
    <path class="a"
          d="M82.74,355.33,17,470.31c-2.37,4.13,3.95,7,6.89,7.64A210.7,210.7,0,0,1,124,533.6c4.6,4.53,14.85,4,20.52,2.43,4.65-1.27,10.07-4.64,5.38-9.26-30.44-30-69.36-50.86-110.93-60.51l6.89,7.65,65.78-115c4.82-8.44-24.22-11.84-28.93-3.59Z"/>
    <path class="a"
          d="M735.06,522.31c23.51-25.23,62.74-22.84,90-42.3,3.19-2.29,6.65-5.3,6.51-9.6-.16-4.76-4.31-10.08-6.59-14.09q-7.5-13.2-15.8-25.91a497.27,497.27,0,0,0-85.07-99.05c-4.59-4.12-12.68-4-18.45-3.49-1.4.13-14.44,2.59-10.48,6.15a501.55,501.55,0,0,1,79.3,90.39Q783,436.95,790.77,450q3.56,6,6.94,12c2.13,3.82,6,8.55,2,12.41-5.23,5.06-13.8,8.06-20.52,10.58-7.91,3-16,5.37-24.06,8-17.87,5.74-35.91,12.66-49,26.7-3.77,4,8.88,6,10.47,6.15,5.25.49,14.41.84,18.46-3.49Z"/>
</svg>