<svg xmlns="http://www.w3.org/2000/svg" viewBox="0 0 2488 371"><defs><style>.a{fill:#0c374c;}</style></defs><path class="a" d="M23.46,49.76c57.69,3.66,115.43,5.66,173.24,4.81q25.74-.37,51.46-1.3L239.49,36c-61.35,16-116.55,48.93-171.61,79.3C53.65,123.11,39.35,130.84,24.74,138c-3.93,1.92-6.57,6.28-3.55,10.15,3.49,4.48,10.38,5.66,15.7,5.72,13,.14,26.17-1.73,39.1-3.11,7.88-.83,15.75-1.65,23.64-2.35l6.4-.53,3.25-.25-2.55.18,1.78-.12c4.46-.3,8.93-.56,13.4-.74,9.06-.38,18.13-.5,27.19-.21q3.43.1,6.87.3l3.16.19c2.91.19-4.68-.36-2.2-.16l1.83.15c4.5.38,9,.88,13.46,1.54,4.3.63,8.51,1.64,12.79,2.35-.54-.09-4.62-1.09-2.14-.49l1.7.41,3.13.82c2.06.57,4.11,1.17,6.14,1.84s4,1.35,5.95,2.11l1.34.52c2.15.85-1.17-.45-1.7-.72,1,.5,2,.88,3,1.34A91.65,91.65,0,0,1,213,162.58c.85.53,1.67,1.1,2.51,1.64,1.59,1-2.69-1.95-1.17-.82l1.3.94c1.6,1.19,3.14,2.44,4.64,3.76a76.62,76.62,0,0,1,8.29,8.61c1.25,1.51-1-1.33-.58-.75.27.38.56.74.84,1.12.65.88,1.28,1.79,1.88,2.7q1.65,2.49,3.08,5.13A73.8,73.8,0,0,1,239,196.84c.73,2.19,1.36,4.41,1.92,6.64l-.61-2.47a104.33,104.33,0,0,1,0,49l.61-2.47a112,112,0,0,1-10.14,25.82A124.62,124.62,0,0,1,223.57,285c-.63.91-1.28,1.82-1.94,2.71l-1,1.34c-.22.29-1.34,1.71-.41.55s-.21.25-.44.53l-1.06,1.3c-.81,1-1.62,1.92-2.45,2.87a134.36,134.36,0,0,1-21,19.28l-1.36,1c-1.22.89,0,.65.63-.44-.39.7-2.09,1.42-2.78,1.87q-3,1.93-6.05,3.71c-4,2.28-8.06,4.28-12.22,6.17-2.18,1,1-.43,1.2-.49-.52.18-1,.41-1.53.61-1,.4-2,.79-3.08,1.16q-3.47,1.26-7,2.28c-1.05.3-2.1.59-3.16.86-.52.13-1.06.23-1.58.39,4.4-1.3,2.82-.63,1.73-.4-2.39.49-4.78.93-7.19,1.27-1.84.26-4.91,1.17-6.71.72.1,0,4.63-.29,1.77-.14l-1.85.11c-1.37.08-2.75.14-4.12.18-5,.15-10.05,0-15.07-.22-2.14-.11,4.11.33,2,.15l-1.7-.15c-1.14-.1-2.27-.21-3.39-.34-2.37-.27-4.73-.59-7.08-1-2.19-.35-4.36-.76-6.52-1.21-.54-.12-1.07-.25-1.61-.35,4.62.88,2.75.64,1.7.38-1.32-.33-2.64-.66-4-1-4.31-1.17-8.57-2.55-12.75-4.12l-3-1.17c-1-.39-2.88-1.38.85.37-.49-.23-1-.43-1.49-.64q-3.18-1.38-6.3-2.9-6.87-3.36-13.41-7.32-3.43-2.07-6.77-4.28c-1.07-.7-2.13-1.42-3.19-2.14-1.84-1.24.32.22.57.41-.69-.52-1.41-1-2.11-1.5A301.52,301.52,0,0,1,32.1,283.56c-5.77-5.26-16.42-5.86-23.51-3.33-2.81,1-6.71,2.53-7.89,5.55A6.13,6.13,0,0,0,2.43,293c21.72,19.8,45.73,37.06,73.38,47.51A161.25,161.25,0,0,0,116.73,350c16.24,1.61,33.15,1.75,49.25-1.17,55-10,106.36-56.41,111.22-114,1.56-18.56-1.43-38.88-10.51-55.31-8-14.5-20.68-25.81-35.26-33.48C199.47,129.24,161,127,125.57,128.2c-17,.57-34.07,2.05-51,3.81-6.66.69-13.32,1.42-20,2.1-2.86.28-5.71.56-8.58.8-1.91.17-7.31.49.7,0-1.29.08-2.58.17-3.87.23-2,.1-3.94.16-5.91.13L49,151.12c26.32-12.87,51.71-27.56,77.35-41.7,13.51-7.45,27.08-14.79,40.84-21.76q10.62-5.39,21.41-10.44,5.27-2.46,10.59-4.82l4.63-2,2.78-1.19,1.86-.79-.69.29a390.29,390.29,0,0,1,49-16.69c4-1,10.74-5.47,7.9-10.5-3-5.28-11-7-16.57-6.82-57.78,2-115.55,2-173.3-.66q-25.71-1.19-51.4-2.85a24.6,24.6,0,0,0-12.15,2.72c-2.1,1.17-5.27,3.71-5,6.57.63,7.68,11.49,8.94,17.18,9.3Z"/><path class="a" d="M1292,120.19c17.19,59.41,28.18,122,56.55,177.5,6.8,13.31,14.94,26.56,25.74,37,5.94,5.74,18.38,6.2,25.19,1.89,54.69-34.68,91.29-96.71,107.63-158.29l-31.49-2.48c.24,13.12,6,26.57,11,38.49,7,16.75,15.28,33,23.84,49,12.35,23.07,24.92,46.76,39.93,68.25,6,8.54,19,10.31,27.85,4.89,3.27-2,5.23-5.08,7.41-8.13,6-8.38,11.49-17.15,16.91-25.92,18.47-29.85,35.77-60.49,51.62-91.82,9.1-18,17.76-36.28,25.06-55.09,5.65-14.56,11.17-30.07,12.38-45.75.55-7.12-11-9.34-16-9.34-5.77,0-15.47,2.13-16,9.34a79.27,79.27,0,0,1-1.25,9.08c-.15.76-.31,1.52-.47,2.28-.38,1.85.32-1.21-.15.67s-1,3.85-1.52,5.77c-2.25,8-5,15.77-8,23.48-7.34,18.83-16,37.13-25.15,55.14-17.1,33.76-35.82,66.81-56.05,98.79-3.34,5.3-6.73,10.58-10.3,15.72-.88,1.27-2.67,3.46-.51.77-.48.6-.91,1.24-1.39,1.84a11.68,11.68,0,0,0-1.11,1.33c-.07.11-.36.25-.38.38.17-.88,4.62-2.89,5.32-3.07l8.09-1.28h0l8.1,1.28h0l5.75,3.35c-1.52-1.17,1,1.59.77,1.15a25.19,25.19,0,0,0-1.85-2.77c-2-3.06-3.92-6.18-5.84-9.29q-9-14.69-17.52-29.66c-14.38-25.19-28.42-50.89-39.42-77.77a185.4,185.4,0,0,1-6.63-18.47c-.41-1.39-.79-2.8-1.14-4.21-.12-.47-.38-1.85.07.32-.14-.69-.3-1.38-.42-2.07a48.19,48.19,0,0,1-.71-6.68c-.12-6.45-8.93-8.82-13.9-9.18s-16,.52-17.59,6.69a305,305,0,0,1-37.54,85.45c-16,25.14-36.51,48.54-61.85,64.6l25.18,1.89c-9.33-9-14.8-17.93-21-29.76a338.61,338.61,0,0,1-18.5-42.88c-11.1-30.62-19.56-62.13-27.79-93.61-3.82-14.62-7.52-29.28-11.72-43.8-2-6.78-14.33-7.41-19.73-6.53-5.91,1-13.23,4.47-11.19,11.49Z"/><path class="a" d="M1832.63,137.08c-29.54-5.73-61-3.69-88.11,10.13-22.27,11.33-41,29.74-50.81,52.94-10.25,24.35-10.08,50.77-1.17,75.49,5.07,14,13,29.21,23.74,39.76,8.09,8,17.79,14.25,27.83,19.47,42.36,22,106.23,25,141.58-11.84,8.33-8.68,16.43-19.83,18.79-31.84a243.29,243.29,0,0,0,3.77-28.71c1.6-21.5,1-43.42-3-64.64-3.64-19.12-10-38.7-23.76-53-15.45-16-39.39-19.95-60.63-16.18a114.74,114.74,0,0,0-20.48,5.75c-6,2.28-5.33,7.69,0,10.17,6.89,3.2,15.73,2.61,22.68,0,2.35-.89-1,.2,1.38-.52,1.12-.34,2.23-.69,3.36-1s2.19-.53,3.28-.82c2.61-.69-.19,0-.65.08.69-.1,1.38-.24,2.08-.32.5-.06,2.65-.64,3-.35-.78-.6-3.49,0-.35.06a21.28,21.28,0,0,0,2.84.05c-.06.14-3.52-.43-2-.09a18,18,0,0,0,1.8.21c2.92.3-1.11-.37-.34-.1a29.48,29.48,0,0,0,2.94.76c2.3.54-2.13-1.05,0,0,.88.43,1.81.78,2.7,1.19.38.17,2.64,1.38,1.34.64s.9.58,1.24.82a52.28,52.28,0,0,1,4.36,3.33c.75.65,1.48,1.34,2.2,2l.91.91c-.12-.13-.84-.91-.13-.12,1.28,1.43,2.48,2.93,3.62,4.47a74.52,74.52,0,0,1,6.27,10.34,109.19,109.19,0,0,1,8.49,23.64c4.53,18.76,5.9,38.28,5.5,57.53a275.17,275.17,0,0,1-2.05,28.54c-1.17,9.32-2.48,17.65-7.08,26a69.61,69.61,0,0,1-19.45,22.54A48.84,48.84,0,0,1,1837,331c-1,.46-2.1.91-3.16,1.33-.49.19-3.4,1.24-2.14.82s-1.7.5-2.2.65c-1.28.37-2.58.71-3.88,1-1.12.27-2.25.5-3.38.74,2.93-.62,0,0-1.3.15-1.15.16-2.3.3-3.45.43-1.63.17-4.28.27-1,.15-2.34.09-4.68.17-7,.13-1.17,0-2.35-.09-3.53-.1,3.32,0,.57,0-1-.12q-3.84-.36-7.64-1c-1.28-.2-3.44-.66-.85-.11-1.36-.29-2.72-.58-4.07-.89q-3.48-.83-6.9-1.84c-1.33-.4-2.65-.82-4-1.25,2.28.75-1.07-.4-1.78-.68a99.06,99.06,0,0,1-24.59-13c-3.8-2.74-8-5.74-11.1-9.28-4.33-4.92-8-10.95-11.25-16.6-12.3-21.17-17.84-45.64-13.37-69.91a92.11,92.11,0,0,1,31.22-53.1,88.78,88.78,0,0,1,26.68-15.62c.6-.23,1.21-.46,1.83-.68-.27.1-1.61.54-.15.07s2.93-.91,4.41-1.31c1.27-.35,2.55-.67,3.84-1,.65-.16,1.3-.29,2-.44,2.26-.52-2.21.35.1,0,2.66-.44,5.33-.78,8-1.06.67-.07,1.35-.11,2-.18-.22,0-2.72.05-.84.07,1.6,0,3.22-.1,4.83-.1.91,0,5,.12,3.46.05-1.7-.08,2.17.19,2.81.26,1.43.14,2.85.32,4.27.52.68.09,5,.82,2.63.37,6.79,1.32,16.14,2.14,21.94-2.58,5.42-4.4-1.24-8.95-5.75-9.83Z"/><path class="a" d="M1983.16,339.35c-10.6-32.19-4.37-67.49-.76-100.37,1.75-15.94,3.63-31.86,5.47-47.79q1.41-12.27,2.78-24.54.66-5.91,1.29-11.81c.22-2,.43-4.05.64-6.08.16-1.5-.2-6.1.38-7.17l-29.31,1.17c-2.19-1.17-.72-.54-.32.48a14.47,14.47,0,0,0,1.56,2.47,12.34,12.34,0,0,0,3.77,3.94c7.57,4.7,18.6,3,26.89,1.44,9-1.66,17.83-3.9,26.72-6,4.53-1,9.06-2.06,13.62-3,2.44-.49,4.9-.95,7.36-1.37.8-.13,1.61-.27,2.42-.39s5.92-.74,2.12-.33c2.09-.22,4.25-.26,6.32-.58,2.37-.37-4,0-.38,0a18,18,0,0,1,3.2,0c-6.28-1.22,4.25,1.46-1.07-.07.6.18,3.76,1,.43,0,.45.14,4,1.42,1.68.43,5.66,2.45,9.23,7.46,10.32,14.31,1.72,10.81.68,23.47-2.14,34-4,14.92-13.73,22-27.11,27.49a70.22,70.22,0,0,1-17.27,4.89c2.38-.31-2.65.23-2.46.21-1,.08-2,.14-3,.19,1.58-.06,1.78-.07.62,0-3,.06-6,.05-9,.07-14.42.07-29,1.19-42,8-6.31,3.33,3.32,6.13,5.75,6.7,22.7,5.24,42.2,6.44,62.57,16.6,10.89,5.44,20.33,13.09,26.89,23.44,5.49,8.67,7.69,18.57,10.23,28.39,3,11.52,5.57,23.15,8.76,34.61,2.35,8.44,33.37,4.71,32.07,0-2.9-10.43-5.29-21-8-31.51s-5.07-21.57-10.46-31.23c-13.21-23.66-40.45-34.31-65.46-40.35-13.39-3.23-27-5.31-40.44-8.41l5.75,6.7a31.16,31.16,0,0,1,6.44-2.67c-2.27.63,1.74-.32,1.8-.33-2.77.51-.68.06,0,0s5-.25.86-.12c1.31,0,2.62-.06,3.93-.07,2.73,0,5.45,0,8.18,0,15-.2,30-1.88,44.14-7.06s28.77-11.48,35.64-25.72c4.53-9.4,6-19.78,6.24-30.12.24-8.84.32-18.66-5.58-25.93-5.34-6.57-14.24-9.32-22.24-10.79-11-2-22.61-1.8-33.72-.52-21.71,2.5-42.5,9.23-64,12.7h16.18l-.39-.07,5.75,1.75c1.52,1-.28-.8-.43-1.08-.46-.85-1.1-1.71-1.63-2.53-1-1.58-1.62-2.64-3.4-3.59-4.59-2.46-11-2.58-16-2.34-3,.14-11.56.23-13.33,3.51s-1.37,8.33-1.74,11.81q-.63,6-1.29,12-1.35,12.36-2.78,24.72c-1.9,16.51-3.86,33-5.68,49.56-3.69,33.45-10.25,69.54.54,102.31,2.81,8.55,33.46,4.23,32.07,0Z"/><path class="a" d="M2161.38,143.63c-4.17,27.06-7.43,54.26-9.14,81.59-1.74,27.83-2.69,56.25-.79,84.09.81,11.9,3.87,24.31,14.36,31.33,8.11,5.43,18.78,6.46,28.24,5.15,14.19-2,28.25-6.78,41.54-12,15.73-6.12,31.94-13.64,44.66-25,10.41-9.25,15.62-19.8,15.43-33.76-.2-15.21-4.32-30.31-9.31-44.56a200.6,200.6,0,0,0-24.23-48.22c-11.22-16.18-25.47-30.61-43.38-39.18-12.47-6-27.69-9.19-41.14-4.85l-.58.17q-6.73,1.67,9.11.31c1.6.48,1.73.49.37,0-.82-.29-1.66-.55-2.5-.79a40,40,0,0,0-14.1-1.67c-7.85.43-16.49,2.23-15.63,11.43s32.84,8.26,32.07,0c-.2-2.14.66-3-1.05-2.07l-9.59,2.86-10.33-.51q-2.54-.77-1.08-.27a30.79,30.79,0,0,0,4.67,1.45,44.34,44.34,0,0,0,9,1.39,48.64,48.64,0,0,0,12.91-.84c.81-.17,1.58-.35,2.38-.56,6.57-1.74-5.44-.81-6.43-.8.48,0,3.93,1.12.84.15.67.21,1.36.42,2,.67,1.5.58,3,1.17,4.47,1.79.38.16,2.46,1.15.9.38.65.32,1.3.68,1.93,1q2.65,1.47,5.2,3.17c12.58,8.35,22.51,20.13,30.83,32.62,16,24,28.48,53.34,30.44,82.4.74,11.06-.35,20-7.54,28.39-8.72,10.18-22.26,17.09-33.75,22.16q-9.9,4.35-20.18,7.78c-1.46.49-2.93,1-4.4,1.43-.14.05-3.25,1-1.18.38s-.88.25-1.06.31c-2.6.74-5.21,1.45-7.85,2.08-1.72.41-3.63.58-5.31,1.13,4.22-1.38,3.3-.46,1.58-.3-1.44.13-2.78-.16,3.27-.16l3.86.2q6.24,1.71,2.76.46c.49.57-1.91-1.51-2.48-2.09a22.22,22.22,0,0,1-3.77-5.47c-2.8-5.38-3.46-11.67-3.86-17.65-3.73-55.07,1.55-111.27,9.93-165.68,1.18-7.66-30.58-9.65-32.07,0Z"/><path class="a" d="M2441.1,147c-16.69-14.57-39.15-19.58-60.86-19.53-21.1,0-46.27,4.29-61.12,20.89-5.91,6.6-10.3,16-8.08,25,1.92,7.78,7.94,14,14.25,18.49,21.19,15.26,47.55,17.58,72.91,16.57,6-.24,11.92-.77,17.87-1.38,3.11-.31,6.21-.72,9.31-1-.81.08,5.89,3.17,1.84-.11-.37-.3-3-.56-2.6,0,.68.84,3.44,1.48,4.46,2.13a28.92,28.92,0,0,1,5.33,4.48,40.53,40.53,0,0,1,7.54,11.66c7.37,16.6,9.72,37,6.78,54.87A71.5,71.5,0,0,1,2431,315.87a91.77,91.77,0,0,1-22.16,17.21s-2.56,1.33-3.66,1.85a29.05,29.05,0,0,1-3.8,1.54c1.5-.46-.18,0-.4.06-2.63.93,1.66-.19-1,.19-3.62.52,2.13-.5-.16,0-3.51.81.71-.05-.59,0-.94.06-3.87-.16-.2,0-1.33-.07-2.65-.16-4-.25-.48,0-2.79-.32-.24,0-1.39-.16-2.77-.33-4.16-.52-2.28-.32-3.78-.57-5.24-.84-17.29-3.29-35.34-8.44-50.85-16.94-5.72-3.14-13.36-3-19.72-2.56-3,.2-6.84.28-9.58,1.68-.72.37-3.56,1.77-1.62,2.83,14.46,7.92,30.28,13.2,46.22,17.28,19.49,5,40.08,7.88,60.22,6.21a72.66,72.66,0,0,0,33-10.61,82.25,82.25,0,0,0,23.8-21.36,77.32,77.32,0,0,0,14.76-41c1.17-17.92-2-38.67-11.67-54.08-14.13-22.45-44.64-18.75-67.39-16.29-9.51,1-15.55,1.75-24.15-.13a60.68,60.68,0,0,1-26.34-13.57c-7-6.11-11.27-14.13-9-23.55,2.65-11.18,12.37-19.48,22.45-24.12a56,56,0,0,1,12.72-4c2.53-.44-1.76.2.78-.12,1.16-.07,1-.09-.4-.06,1.75,0,2.07,0,1,0-1.12.87,2.2.15.22,0,.53.05,3.23.44,2.88.37,10.25,1.81,19.65,7.05,27.42,13.84,4.4,3.84,14.36,2.91,19.72,2.56,1.35-.08,14.39-1.73,11.2-4.51Z"/><path class="a" d="M377.06,345.08c4.56-28.52,3.56-58.35,3.45-87.13-.14-35.67-1.06-71.34-2.14-107-.43-14-.91-28.05-1.31-42.08-.19-6.83-30.66-7.17-32.07,0-1.51,7.74-1.17,15.91-.93,23.74.37,11.67,1.28,23.32,2.36,34.94,1.81,19.61,3.85,39.34,7.31,58.74.68,3.82,9.11,4.4,11.77,4.62a40.05,40.05,0,0,0,18.11-2.2C432,209.59,458.74,158.11,507,139c5.94-2.35-1.91-5.65-4.13-6.18a43,43,0,0,0-21.05.37c-25.22,7.25-46.27,23.1-66.67,39-19.42,15.16-39.33,32-63.29,39.35-3.49,1.06-6.5,3.2-2.51,5.8l46.48,30.36c13.19,8.61,26.1,17,37.69,27.75,21.54,20,40.59,44.14,53,70.86.79,1.71,6.11,2.63,7.36,2.86a47.83,47.83,0,0,0,12.36.48c2.92-.24,13.43-1.08,11.2-5.89-12.62-27.21-32.15-51.89-54.26-72-11.67-10.63-24.68-19.1-37.86-27.71l-48.27-31.53-2.51,5.81c25.13-7.69,46-23.65,66.47-39.61,19.4-15.16,39.4-31.83,63.5-38.75l-25.19-5.81c-48.4,19.13-75.13,70.62-123.4,89.69l29.88,2.42c-3.46-19.4-5.5-39.13-7.32-58.74-1.06-11.43-2-22.89-2.33-34.37-.26-8-.64-16.39.91-24.31H345c1.84,64.75,4.84,129.6,3,194.38-.4,13.93-.8,28-3,41.82-.88,5.53,30.79,8,32.07,0Z"/><path class="a" d="M569.32,344.88c4.74-9.28,7.15-19.79,9.51-29.87,3.24-13.84,5.7-27.85,8.07-41.86,5.21-30.74,9.51-61.7,16.27-92.16,1.37-6.2,2.87-12.37,4.65-18.47.72-2.44,1.61-1.89,2.94.48,3.06,5.48,5.81,11.13,8.36,16.87,12.16,27.31,20.75,56.37,27.86,85.36,6.15,25.08,12.76,51.44,13.64,77.39.23,6.87,10.9,8.52,16,8.52,6.14,0,14.49-1.67,16-8.52,2.16-9.55,3-19.46,4-29.18,1.55-14.72,2.89-29.47,4.33-44.2,3.12-31.8,6-64,12.73-95.24a127.37,127.37,0,0,1,4.1-15.66,65.39,65.39,0,0,1,5.29-12.06c1.58-2.75,5.8,4,5,3s1,1.5,1.41,2c.91,1.34,1.77,2.72,2.59,4.12,7,12,11.59,25.33,15.7,38.5,4.94,15.8,8.94,31.87,12.68,48,4.08,17.61,7.78,35.31,11.76,52.95,2.91,12.91,5.54,26.24,10.35,38.61,1.95,5,11,6.25,15.46,6.25,4.78,0,13.25-1.15,15.46-6.25,3.85-8.89,6.14-18.57,8.6-27.91,4-15.25,7.68-30.59,11.3-45.93,7.37-31.23,14.38-63.35,22.5-93.66,1.44-5.34,3-8.58,4.27-3.74.09.36.54,2.16.18.71l.54,2.2c.33,1.37.65,2.75,1,4.13q1.23,5.42,2.35,10.87c1.55,7.53,3,15.09,4.33,22.65,3,16.52,5.71,33.07,8.5,49.62,2.86,17,5.7,34,9.24,50.89,2.25,10.73,4.06,23,9.43,32.71,5.45,9.9,36.92,6.35,30.92-4.53a54.58,54.58,0,0,1-4.24-11.28c-.88-3-1.18-4.24-1.58-5.91-.75-3.19-1.48-6.38-2.16-9.58-3.31-15.54-6-31.21-8.63-46.87-5.55-32.73-10.19-65.83-18.39-98-2.7-10.61-5.43-22-13.75-29.8-11.79-11-35.69-10.82-44,4.31-2.13,3.88-3.42,8.3-4.73,12.5-9.36,30.14-15.76,61.29-22.94,92-4.2,18-8.67,37.26-13,54.43-3,11.9-5.71,24.38-10.61,35.69h30.92c-4.52-11.62-6.27-21.11-9-33-3.74-16.53-7.22-33.12-11-49.64-4.06-17.75-8.35-35.48-13.6-52.91-4.3-14.25-9.07-28.77-16.5-41.74-9.37-16.35-25.71-28.42-45.65-26.07-17.56,2.07-26.86,15.05-31.6,30.53-9.32,30.46-12.11,63.16-15.4,94.69-1.94,18.58-3.62,37.19-5.49,55.79-1.2,12-2.05,24.29-4.7,36.08h32.06c-.81-24.13-6.77-48.59-12.32-72-7.5-31.56-16.35-63.21-29.3-93-5.33-12.26-11.52-29.12-24-35.64-16.26-8.52-44-4.8-49.85,14.92-9.19,30.74-13.64,62.9-18.8,94.51-2.92,17.91-5.78,35.84-9.47,53.62-2.49,12-4.85,24.14-10.55,35.29s25.75,14.65,30.92,4.53Z"/><path class="a" d="M1002.73,49.76c57.69,3.66,115.43,5.66,173.24,4.81q25.74-.37,51.46-1.3L1218.76,36c-61.35,16-116.55,48.93-171.61,79.3-14.23,7.86-28.54,15.59-43.14,22.73-3.94,1.92-6.57,6.28-3.55,10.15,3.49,4.48,10.38,5.66,15.7,5.72,13,.14,26.17-1.73,39.1-3.11,7.88-.83,15.75-1.65,23.64-2.35l6.4-.53,3.25-.25-2.55.18,1.78-.12c4.46-.3,8.93-.56,13.4-.74,9.06-.38,18.13-.5,27.19-.21q3.44.1,6.87.3l3.16.19c2.91.19-4.68-.36-2.2-.16l1.83.15c4.5.38,9,.88,13.46,1.54,4.29.63,8.51,1.64,12.79,2.35-.54-.09-4.62-1.09-2.14-.49l1.7.41,3.13.82c2.06.57,4.11,1.17,6.14,1.84s4,1.35,6,2.11l1.34.52c2.15.85-1.17-.45-1.71-.72,1,.5,2,.88,3,1.34a91.79,91.79,0,0,1,10.52,5.66c.85.53,1.67,1.1,2.51,1.64,1.59,1-2.69-1.95-1.17-.82l1.3.94q2.38,1.78,4.64,3.76a76.62,76.62,0,0,1,8.29,8.61c1.25,1.51-1-1.33-.58-.75.27.38.56.74.84,1.12.65.88,1.28,1.79,1.88,2.7q1.65,2.49,3.08,5.13a73.8,73.8,0,0,1,5.18,11.93c.73,2.19,1.36,4.41,1.92,6.64l-.61-2.47a104.33,104.33,0,0,1,0,49l.61-2.47A111.58,111.58,0,0,1,1210,273.33a122.45,122.45,0,0,1-7.2,11.65c-.63.91-1.28,1.82-1.94,2.71l-1,1.34c-.22.29-1.34,1.71-.41.55s-.21.25-.44.53l-1.06,1.3c-.81,1-1.62,1.92-2.45,2.87a134.36,134.36,0,0,1-21,19.28l-1.36,1c-1.22.89,0,.65.63-.44-.39.7-2.09,1.42-2.78,1.87q-3,1.93-6,3.71c-4,2.28-8.06,4.28-12.22,6.17-2.18,1,1-.43,1.19-.49-.51.18-1,.41-1.52.61-1,.4-2.05.79-3.08,1.16q-3.46,1.26-7,2.28c-1,.3-2.09.59-3.15.86-.52.13-1.06.23-1.58.39,4.4-1.3,2.82-.63,1.73-.4-2.39.49-4.78.93-7.19,1.27-1.84.26-4.91,1.17-6.71.72.1,0,4.62-.29,1.77-.14l-1.85.11c-1.37.08-2.75.14-4.12.18-5,.15-10,0-15.07-.22-2.14-.11,4.11.33,2,.15l-1.71-.15c-1.13-.1-2.26-.21-3.38-.34-2.37-.27-4.73-.59-7.08-1-2.19-.35-4.36-.76-6.52-1.21-.54-.12-1.08-.25-1.61-.35,4.62.88,2.75.64,1.7.38-1.32-.33-2.64-.66-4-1-4.31-1.17-8.57-2.55-12.75-4.12-1-.38-2-.77-3-1.17s-2.88-1.38.85.37c-.49-.23-1-.43-1.5-.64q-3.17-1.38-6.29-2.9-6.87-3.36-13.41-7.32-3.43-2.07-6.77-4.28c-1.07-.7-2.13-1.42-3.19-2.14-1.84-1.24.32.22.57.41-.69-.52-1.41-1-2.11-1.5a301.52,301.52,0,0,1-26.56-21.82c-5.77-5.26-16.42-5.86-23.51-3.33-2.81,1-6.71,2.53-7.89,5.55A6.11,6.11,0,0,0,981.7,293c21.72,19.8,45.73,37.06,73.38,47.51A161.25,161.25,0,0,0,1096,350c16.24,1.61,33.15,1.75,49.25-1.17,55-10,106.36-56.41,111.21-114C1258,216.29,1255,196,1246,179.54c-8-14.5-20.67-25.81-35.25-33.48-32-16.82-70.44-19.06-105.86-17.86-17,.57-34.07,2.05-51,3.81-6.66.69-13.32,1.42-20,2.1-2.86.28-5.72.56-8.58.8-1.91.17-7.31.49.7,0-1.29.08-2.58.17-3.87.23-2,.1-3.94.16-5.91.13l12.15,15.87c26.32-12.87,51.71-27.56,77.35-41.7,13.51-7.45,27.08-14.79,40.84-21.76q10.62-5.39,21.41-10.44,5.27-2.46,10.59-4.82l4.62-2,2.79-1.19,1.85-.79c-1.92.81-2.15.9-.68.29a390.29,390.29,0,0,1,49-16.69c4-1,10.74-5.47,7.9-10.5-3-5.28-11-7-16.57-6.82-57.78,2-115.55,2-173.3-.66q-25.73-1.19-51.4-2.85a24.6,24.6,0,0,0-12.15,2.72c-2.1,1.17-5.27,3.71-5,6.57.63,7.68,11.49,8.94,17.18,9.3Z"/></svg>