<svg xmlns="http://www.w3.org/2000/svg" viewBox="0 0 848 786">
    <defs>
        <style>.a{fill:#0c374c;}</style>
    </defs>
    <path class="a"
          d="M421.72,598.12a510.34,510.34,0,0,1-11-118.42c.17-7-15.46-6.53-19-6.24-18.64,1.5-41-7.18-59.73-15.33-19-8.27-38-16.91-55.27-28.42-17.1-11.4-31.75-25.5-42-43.47s-15.49-37.84-17.47-58.17c-4.49-46.25,9-91.64,23.17-135.12,3.17-9.74,6-19.94,11.26-28.79,4.79-8,11.57-12.87,20.34-15.85,10.91-3.7,22.34-6.24,33.48-9.14,11.85-3.08,23.74-6,35.71-8.54,22.76-4.81,45.7-7.94,68.64-7.51,20.05.37,41.63,4.23,62.11,10.14,42.53,12.29,82.17,33.44,120.52,55.17,9.25,5.24,19.07,10.1,27.72,16.31,9,6.47,11.89,15,11.16,25.94-.78,11.59-3.32,23.2-5.22,34.65q-3.08,18.46-6.38,36.9-6.63,36.86-14.2,73.53c-4.38,21.21-7.14,44.82-17.91,64a57.21,57.21,0,0,1-17.83,19.54,67.83,67.83,0,0,1-20.39,9c-9.37,2.56-14.47,3.25-24.38,4.43-9.18,1.1-18.39,1.86-27.58,2.79-19.75,2-43.29,3.71-57.57,19.22-7.3,7.93-11.2,19-15.77,28.65L408.15,557.1l-16,33.72c-4.19,8.79,25.06,11.57,28.92,3.45q16.91-35.5,33.8-71c4.48-9.41,8.39-21.34,17.22-27.62,7.58-5.38,15.56-5.58,24.16-6.63,37.55-4.57,82.68-3.43,110.87-32.95,15.45-16.18,19.78-39,24.3-60.07q8.25-38.55,15.45-77.3c4.79-25.84,9.31-51.73,13.32-77.7,1.66-10.77,2.92-22.57-3.35-32.22-5.91-9.09-16.08-14.18-25.19-19.4-41.14-23.58-82.86-46.95-128-62.11-23.23-7.81-47.18-13.57-71.62-15.86-26.54-2.49-53.27-1.08-79.56,3.13-26,4.16-51.55,10.57-77,17.41-11.2,3-23,5.53-33.35,11a49.26,49.26,0,0,0-22.2,23.24c-4.81,10.29-7.83,21.5-11.28,32.29-3.83,11.95-7.55,24-10.82,36.08-6.35,23.59-11.09,47.84-11.4,72.34-.53,43.68,13.55,86.7,46.95,116,16.68,14.65,36.53,25.37,56.48,34.83,21.61,10.24,44,20.55,67.54,25.43a148,148,0,0,0,42.3,2.72l-19-6.24a510.34,510.34,0,0,0,11,118.42c2.08,9.77,31.64,7.72,30,0Z"/>
    <path class="a"
          d="M382.83,568.93c-22.5.57-44.45,7.1-62.4,21-17.27,13.34-29.28,31.1-36.4,51.65-6.23,18-11.9,40.59,1.87,56.56C301,715.54,326,714.3,347,715.28c44.64,2.08,90.74.05,133.25-14.91,37.88-13.32,79.11-40,89.42-81.41,1.74-7,3.42-15.54.6-22.47-3.54-8.7-14.2-12.3-22.52-14.38C519.22,575,489.39,578,460.34,578c-3.46,0-14.75.32-15,5.55-.25,5.07,12.42,5.55,15,5.55,21.66,0,43.71-2.5,64.81,1,5.67.94,11.77,1.83,14.94,6.75,2,3,1.68,7.52,1.33,11.63-3,36.07-35.22,63.07-65.94,77.36a197.07,197.07,0,0,1-52.7,15.61c-17.28,2.71-33.89,3.47-52.14,3.35q-7.17,0-14.34-.29c-5.51-.18-8.36-.31-12.9-.57-4.78-.27-9.55-.57-14.32-.94-1-.08-2.05-.12-3.06-.26.85.12,1.67.66-.46-.16.9.35-2.65-1.09-3.24-1.41A29.7,29.7,0,0,1,309,685.44c-3-8.11-1.51-16.87.07-25.11,4.11-21.53,13.57-41.9,29.1-57.57a86.53,86.53,0,0,1,22.92-16.6,72.43,72.43,0,0,1,11.47-4.44c1-.26,2-.48,2.93-.7.36-.08,4.28-.8,2.33-.5,1-.15,2-.23,3-.35,3.14-.4-1.42-.06,2.05-.14s14.75-.26,15-5.55c.24-5-12.43-5.61-15-5.55Z"/>
</svg>