<svg xmlns="http://www.w3.org/2000/svg" viewBox="0 0 848 786">
    <defs>
        <style>.a{fill:#0c374c;}</style>
    </defs>
    <path class="a"
          d="M459.4,187.39,302.32,382.11,257.88,437.2c-4.42,5.48,3.56,11.48,7.72,13.17a530.48,530.48,0,0,1,51.47,24.1q6.09,3.25,12.08,6.68c1.18.67,2.37,1.32,3.52,2-.58-.35-3.81-2.26-.48-.27,2.32,1.39,4.65,2.78,6.95,4.19q11.78,7.21,23.17,15a542.18,542.18,0,0,1,86.26,73.79c3.58,3.78-1.26-1.37.85.92l2.75,3c1.82,2,3.63,4,5.42,6Q463,592,468.15,598.23q10.38,12.51,20,25.64c7.47,10.23,25.51,11.16,36.9,9.46,5.45-.82,28.51-6.32,21-16.65-47.38-64.8-108.59-118-178.62-157.07A530.5,530.5,0,0,0,308,431.22l7.72,13.17L472.82,249.67l44.44-55.08c2.86-3.55-.37-8.25-3-10.43-4.53-3.73-12.33-5.63-17.92-6.22-12-1.27-28.62-.82-36.91,9.45Z"/>
</svg>