<svg xmlns="http://www.w3.org/2000/svg" viewBox="0 0 848 786">
    <defs>
        <style>.a{fill:#0c374c;}</style>
    </defs>
    <path class="a"
          d="M98.8,204.13l-5.54,99.38-1.33,23.85-.67,11.93c-.21,3.83-1,8.12-.11,11.92,3.4,15.15,29.58,11.51,40.77,11.54l49.67.12c16.44,0,33.28,1.12,49.68-.18,6.89-.54,14.77-1.65,20.31-6.14,5-4,5.12-10,5.1-15.94q-.1-23.92-2.17-47.79a614.17,614.17,0,0,0-18.38-105.47c-.91-3.41-6.48-4-9.22-4.4-5.1-.7-11.5-.91-16.39,1a512,512,0,0,1-98.1,27.36c-3.16.55-10.63,3.1-5.38,6.58s14.74,2.73,20.52,1.73a543.69,543.69,0,0,0,104.17-28.86l-25.6-3.4a614.59,614.59,0,0,1,16.24,84.52q2.56,21.39,3.61,42.91.48,10,.64,20.09c0,3.54.25,7.13,0,10.67a21.1,21.1,0,0,1-.34,3,6.93,6.93,0,0,1-1,2.82,9.81,9.81,0,0,1-1.63,1.89c0-.75-1.29,1.38.07.19.82-.72,1.93,1-.39,0l1.32-.08h-3.3l-6,0-21.85-.05-45.69-.11L128,353.11l-6,0h-2c-2.4,0-2.65,0-.73.09l3.76,1-.56-.41a4.6,4.6,0,0,1-1.32-2.56,16.42,16.42,0,0,1-.3-3c-.26-6.88.7-14,1.08-20.89l1.22-21.86,5.65-101.37c.36-6.49-29.59-7.35-30,0Z"/>
    <path class="a"
          d="M293.86,200.9l0,158.58c0,2.64,11.88,2.58,13,2.6,5.31.12,11.5.34,16.45-1.89,28.67-13,60.11-18.32,91.19-20.3,16.41-1,32.29-1.4,47.77-1.72,9.06-.18,18.11-.37,27.16-.63,8.37-.24,17.8.36,25.79-2.47,8.2-2.91,5.41-9.65,1.17-14.94a204.62,204.62,0,0,1-14.27-19.72,188.49,188.49,0,0,1-25.33-64.67c-1.46-7.69-1.82-15.46-3-23.17s-6.55-11-13.79-12.64c-9.13-2-18.77-2.18-28.06-2.84a1096.3,1096.3,0,0,0-127-1.45c-1.9.08-11.85.13-10.48,3.26.56,1.26,6.11,1.49,6.9,1.58a76.91,76.91,0,0,0,11.56.27,952.9,952.9,0,0,1,99.27.68c7.84.47,15.84.68,23.62,1.71,5.81.77,7.81,6.68,8.36,12.63a195.77,195.77,0,0,0,8.77,43.59A189.21,189.21,0,0,0,471.22,299a194.28,194.28,0,0,0,12,17.32c2.24,2.89,5.14,5.67,6.7,9a7.36,7.36,0,0,1,.89,4.13c-.13.85-.76,1.47-.89,2.27q-2.42,1.46,1,.55,3.46-.3,1.13-.18c-7.38-.22-14.54.47-20.9.61-8.11.18-16.22.33-24.33.52-16.73.4-33.45,1-50.14,2.27-35.09,2.67-70.09,8.72-102.35,23.3l29.47.7,0-158.58c0-3.85-30-4-30,0Z"/>
    <path class="a"
          d="M550.46,210.56c-.11,42.45-.34,84.89-.35,127.34,0,3.68-.26,7.7,2.85,10.29,3.91,3.25,10.61,3.17,15.41,3.37a87.49,87.49,0,0,0,19.73-1.12c4.61-.87,8.91-2.65,13.35-4.15a305.05,305.05,0,0,1,57-13.47A232.38,232.38,0,0,1,716,332c1.53.15,23.34,0,22.57-1.94A447.17,447.17,0,0,1,710.9,220.34q-.76-6.47-1.35-13c-.35-3.86,0-8.82-2.11-12.25-1.92-3.1-5.54-3.76-8.89-4.29-7-1.12-14.31-.73-21.41-.57l-60.33,1.38-68.24,1.55c-1.79,0-11.64,0-10.47,2.76.49,1.13,6.23,1.28,6.89,1.34a103.68,103.68,0,0,0,11.56.22L622.81,196l32.64-.74,15.82-.36,8.9-.2,4-.09c1.59,0,6.37.38-.18,0l-9-1c5,1,4.23,10.09,4.56,13.82q.8,8.81,1.93,17.57,2.34,18,6.15,35.73a448.67,448.67,0,0,0,20.93,69.37l22.57-1.94c-41.1-4.18-83.19-2.18-123.53,6.9q-14,3.15-27.66,7.55c-4.24,1.37-8.39,3-12.62,4.34-.85.27-1.79.44-2.61.75l9.3.16q13.57,2.58,8.81-.13c-1.8-2.24-2.48-3.14-2.69-6.16-.73-10,0-20.42.06-30.49l.08-30.84.19-69.64c0-3.25-30-3.4-30,0Z"/>
    <path class="a"
          d="M96.68,425.58q11.83,78,18.76,156.55c.39,4.52,12.55,4.62,15,4.55l67.93-2c22.86-.69,45.93-.55,68.74-2.16,8.52-.6,21.17-2,26.36-9.9,5.07-7.77,2-19.62,1.2-28.18q-3.1-33.48-8.22-66.72-5.68-37.08-13.84-73.72c-.93-4.21-10-4.35-13-4.47-5.43-.21-11.94-.12-16.46,3.26a25.69,25.69,0,0,1-3.91,1.91c.9-.25-2.64.24-.44.11-1.55.09-3.12.06-4.67.06-7,0-14,0-20.94,0l-42.86,0-85.73.06c-2.95,0-14.7-.05-15,4.54-.29,4.36,13.13,4.55,15,4.55l95.7-.06,47.85,0c14.9,0,31.42.58,43.93-8.76L242.61,404a1138.62,1138.62,0,0,1,20.2,122c1.13,10.33,2.14,20.68,3,31,.5,6.17.61,15.33-5.94,16.7,1.86-.39-.37,0-.69,0,2.94.1-.36,0-.83,0l-8,.24-16,.48-32,1-71.92,2.17,15,4.55q-6.91-78.56-18.76-156.55c-1.13-7.42-30.83-5.45-30,0Z"/>
    <path class="a"
          d="M309.83,425.33,310,598.65c0,3.91,22.93,2.27,25.61,1.72,33.34-6.84,65.45-17.92,98-27.74,15.67-4.74,31.49-9.23,47.57-12.38,7.64-1.5,15.34-2.77,23.08-3.55a144.41,144.41,0,0,1,19.32-.74c.3,0,19.85-.36,19-2.34L490.37,433c-1.56-3.61-2.82-7.92-5.51-10.89-3-3.34-7.9-4.14-12.14-4.89a307,307,0,0,0-31.57-3.68,410.17,410.17,0,0,0-69.21.75,353.6,353.6,0,0,0-69.32,13.7c-5.85,1.79,4.13,3.21,5.38,3.33,6.42.64,14.23,1.06,20.52-.87a305.27,305.27,0,0,1,51.14-11.15,239.26,239.26,0,0,1,48.07-1.43c7.69.55,16.31.77,23.77,2.79,3.3.9,4.84,3.2,6.22,6.23,2,4.44,3.88,9,5.81,13.42l22.93,53,26.1,60.34,19-2.35C492.79,549.8,455.1,556.4,418,567.12c-34.49,10-68.34,22.58-103.58,29.81L340,598.65l-.18-173.32c0-3.56-30-3.64-30,0Z"/>
    <path class="a"
          d="M534.39,431.76l-.12,76-.06,37,0,18c0,5.12-1,11.54,1.52,16.25,6.68,12.52,26,8.11,37,6.44q18.35-2.78,36.79-4.87c23.76-2.71,47-4.49,71-5.42q41.48-1.64,83,.15c6.79.28,19.65-4.72,13-13C745.5,523.9,730.65,474,734.18,425.05c.47-6.57-10.64-8.76-15-8.67q-85,1.89-169.91-1.87c-5-.22-15,2.14-15,8.67,0,6.83,10.17,8.45,15,8.66q84.9,3.77,169.91,1.87l-15-8.66c-3.79,52.57,13.33,105,46.27,146l12.95-13a1048.85,1048.85,0,0,0-139.57,3.59c-22.93,2.1-46.11,4.49-68.77,8.68-1.09.2-2.21-.26.27,0-22.72-2.51,8.07,5.85,8.85,2.79.55-2.13,0-5.09,0-7.29l0-19,.06-35,.13-80c0-11.85-30-11.93-30,0Z"/>
</svg>