<svg xmlns="http://www.w3.org/2000/svg" viewBox="0 0 2688 276">
    <defs>
        <style>.a{fill:#0c374c;}</style>
    </defs>
    <path class="a"
          d="M732.45,41.14c-5.13.28,1.33,0-1.51.09q-1.87.06-3.75.06c-1.21,0-2.41,0-3.62,0-.59,0-3.84-.19-.88,0-2-.12-4-.25-6-.42-1.07-.1-2.13-.2-3.19-.32,2,.22.26,0-.77-.11-7.76-1.08-15.43-2.6-23.13-4.06a280.77,280.77,0,0,0-62-5.1c-2.1.07-15.25,0-15,4.16L623,204.49q.62,9.94,1.22,19.9c.34,5.47.55,11.23,3.77,15.92,7.94,11.58,27.69,9.93,39.74,10,15,.09,30,.25,45,.11,17.91-.16,35.82-.68,53.73-1,2.77-.05,14.66.2,15-4.15.3-4-13.41-4.19-15-4.16-28.07.57-56.11,1.18-84.18,1L667.7,242c-2.44,0-7.05.75-9.31-.06,6.75,2.4.55-1.49-.09-2.14-3.46-3.57-3.68-8.72-4-13.42-.47-7-.85-13.93-1.28-20.89l-4.91-80.57L642.66,35.4l-15,4.15c3.06-.1,6.12-.17,9.18-.17,1.44,0,2.88,0,4.31,0,.62,0,3.76.12,1.76,0,2.56.11,5.12.29,7.68.5,1.21.1,2.42.22,3.63.34.71.07,3.22.37,1.3.13,8.36,1,16.63,2.65,24.9,4.23a246.05,246.05,0,0,0,60,4.51C742.8,49,753,48.3,750.9,44.05c-.85-1.71-5.53-2.26-6.89-2.49a53.22,53.22,0,0,0-11.56-.42Z"/>
    <path class="a"
          d="M648.82,132.29l4.64,0c4,0-2.14-.09,1.07,0,1.26,0,7.54.44,2.94.07,2.69.22,5.38.44,8.07.63,12,.85,24.07.7,36.12.43,1.77,0,11.58,0,10.48-2.59-.47-1.09-6.28-1.2-6.89-1.25a108.78,108.78,0,0,0-11.56-.22c-2.1,0-4.51.09-7.51.1l-3.67,0c1.46,0,2.56.08.43,0-.85,0-1.71-.09-2.57-.1-1.77,0,3.29.25,1,.06l-3.92-.3c-9.53-.77-19.07-1-28.63-1-1.56,0-15-.27-15,2.1s14.29,2.1,15,2.1Z"/>
    <path class="a"
          d="M35,60.17,25.47,239.42c-.35,6.46,11.06,7.58,15,7.82l76.88,4.57c12.4.74,24.82,1.68,37.24,2.21,13,.57,27.3-2.06,34.92-13.65,10.38-15.8,5.12-39.63-2.95-55.18-9.57-18.41-26-32.76-45-40.94-25.25-10.9-53.44-12.89-80.46-8.78l11.56,14.28c19.64-4.33,39.4-8.28,58.93-13,16.15-3.94,31.43-12.27,34.65-29.83C168.78,93.15,162.14,78,151.8,69,137.58,56.72,118.26,52.76,100,51.7c-21-1.21-42.44,3.85-62.89.43-5.41-.9-15.61-.31-18.45,5.46-3,6,6.54,9,10.48,9.62,18.48,3.09,36.83.88,55.38.08,3.58-.16,7.16-.23,10.75-.15.79,0,1.57,0,2.36.07.31,0,3.54.23,2,.1-1.41-.11,1.17.14,1.15.13,1,.14,2.08.24,3.12.38a44.48,44.48,0,0,1,16.82,5.42,32.35,32.35,0,0,1,16.07,28c0,4.89-1.11,10-4.17,13.91-4,5.17-10.14,6.61-16.11,8.06-19.54,4.75-39.3,8.71-58.93,13-4.33,1-9.62,5.26-6.14,9.76,3.71,4.8,12.3,5.35,17.7,4.53,16.81-2.56,32.77-2.24,49.66,4.14a73,73,0,0,1,36.65,30.69c7.67,12.86,13.36,31.39,7.6,46.08a24.3,24.3,0,0,1-4.14,6.76c-1.4,1.57-1.06.37.5.17-4,.51-1.74.13-1.25.12-3.07.07-6.17-.26-9.23-.44l-33.52-2-74.9-4.46,15,7.82L65,60.17c.56-10.55-29.42-11.06-30,0Z"/>
    <path class="a"
          d="M1002.86,50.84C967.15,35.28,924,39.8,892.78,63.4c-10.83,8.19-20.12,19.49-22.9,33-2.67,13,3.69,25.44,13.73,33.53,8.09,6.51,17.6,10.91,27.39,14.19a116,116,0,0,0,17.08,4.49c7.11,1.2,14.41-.29,21.54-1,2.18-.22,4.36-.44,6.54-.63l3-.25c4-.36-3.29.16.67-.05,4.86-.26,9.71-.47,14.58-.36,1.07,0,2.14.08,3.21.11,3.68.11-3.41-.39.2,0,1.68.18,3.36.35,5,.61,1,.15,1.94.37,2.92.51,3.27.47-2.92-1,.17,0,.89.3,1.82.5,2.71.79.7.22,4.49,1.82,1.27.35,1.64.75,3.21,1.57,4.78,2.46.42.24,2.68,2,.58.35.71.54,1.4,1.09,2.06,1.68a33.77,33.77,0,0,1,3.16,3.17c1.89,2.18-.91-1.44.74,1q1.08,1.58,2,3.24c4.52,8.22,5.61,17.61,5.67,26.85,0,3.1.12,5.63-1.42,8.38a43.91,43.91,0,0,1-3.15,4.75,75.74,75.74,0,0,1-7.19,7.69q-2.32,2.13-4.8,4.09c-.84.67-1.69,1.32-2.56,2,0,0-3,2.07-1.23.9a119.51,119.51,0,0,1-11.7,6.93c-9.74,5.07-16.86,7.72-28.45,10.89-1.2.33-2.39.64-3.6.94-.53.14-5.59,1.26-2.45.6-2.84.6-5.67,1.15-8.53,1.63s-5.68.87-8.54,1.2c-1.21.15-2.43.28-3.65.39-1.46.14-3.51.27-.85.1a155.65,155.65,0,0,1-16.59.22c-.73,0-4.66-.33-.6,0-1.5-.13-3-.26-4.5-.44-2.37-.27-4.73-.61-7.08-1-.88-.16-1.76-.34-2.64-.51-1.55-.33-1.39-.3.48.11-.68-.16-1.36-.34-2-.52-2.3-.61-4.55-1.34-6.79-2.13-.53-.19-3.57-1.52-.63-.2-1.17-.52-2.33-1.05-3.48-1.62a59.7,59.7,0,0,1-5.63-3.27c-5.65-3.68-15.48-3.17-21.21,0s-5.11,8,0,11.36c19.05,12.41,44.28,15.21,66.49,14.32a199.77,199.77,0,0,0,75.16-17.6,124.58,124.58,0,0,0,29-18.14c7.79-6.65,17.6-16.41,18.15-27.18,1.14-22.54-6.77-44.86-28.57-54.27-25.14-10.84-54.37-6.62-80.69-3.56h8c-4.79-1,2.35.7-2.21-.52-.92-.25-1.84-.47-2.75-.72q-3.24-.89-6.44-1.95-2.65-.89-5.27-1.93c-2.09-.84,2.54,1.27-.73-.34-1-.49-2-.94-3-1.44-1.55-.79-3-1.65-4.54-2.54-.56-.33-1.12-.69-1.66-1,1.73,1.15.36.25,0,0a48.93,48.93,0,0,1-6.63-6.07c-.36-.4-1.35-1.85-.2-.22-.28-.4-.61-.81-.86-1.24-.63-1-1.28-2.06-1.83-3.16s-.92-2.14-1.35-3.24c-.76-1.92-.2.21-.48-1.82a31.59,31.59,0,0,1-.32-6.73c.07-.9.18-1.81.33-2.71.11-.68.25-1.36.41-2-.35,1.46,0,.08.23-.57a49.65,49.65,0,0,1,7-12.85c.95-1.26-1.46,1.67.25-.29.36-.41.71-.83,1.08-1.24q1.38-1.56,2.88-3A71.46,71.46,0,0,1,918,72.05c.45-.35,4.18-3,2-1.54,1.29-.86,2.59-1.69,3.91-2.47a88.47,88.47,0,0,1,8.41-4.41c.58-.27,1.18-.51,1.76-.79,2.88-1.32-1.75.66.12,0,1.39-.51,2.76-1,4.17-1.5q2.36-.79,4.75-1.46c.64-.18,1.29-.33,1.94-.51,2.76-.78-2.8.47.84-.2,1.83-.33,3.66-.68,5.51-.93.68-.1,1.35-.18,2-.26.47,0,4.7-.3,2.1-.22s.81,0,1.11,0c1,0,2.08,0,3.12,0l2.08,0c.7,0,1.4,0,2.09.09-2.06-.17-2.52-.2-1.36-.1,1.92.28,3.86.4,5.78.7.71.11,1.41.23,2.11.37s1.4.27,2.1.42c-1.65-.39-2-.45-1-.2,1.87.66,3.87,1,5.77,1.66l2.08.73c.7.25,1.39.51,2.08.78-1.31-.55-1.28-.53.07.05,6.5,2.83,14.79,3.55,21.21,0,5-2.77,6-8.75,0-11.36Z"/>
    <path class="a"
          d="M1088.7,64.85q-8.67,90.5-10.29,181.46c-.11,6.31,10.58,7.76,15,7.76,5.24,0,14-1.4,15-7.76q6.93-44.35,13.84-88.7l-15,7.75a720.13,720.13,0,0,0,95.18-3c3.66-.35,11-2.64,11-7.47q-.17-49.48-.31-99h-30l4.47,184.94c.16,6.34,10.38,7.76,15,7.76,4.27,0,15.16-1.44,15-7.76L1213.13,56c-.27-10.78-30-10.76-30,0q.15,49.47.31,99l11-7.48a658.92,658.92,0,0,1-87.2,2.42c-5.18-.18-14,1.56-15,7.76q-6.91,44.35-13.84,88.7h30q1.62-90.88,10.29-181.46c.6-6.24-10.94-7.75-15-7.75-4.91,0-14.39,1.38-15,7.75Z"/>
    <path class="a"
          d="M1298.45,246.31a577.18,577.18,0,0,1,20.47-169.58c1.62-5.82,3.07-11.83,5.46-17.39a27.39,27.39,0,0,1,3.19-6c.48-.63,1.36-1.26,1.81-1.89-.56.31-.52.29.14-.09,1.49-.81.63-.57-2.6.7-3.14.54-4.13-.91-6.48-.71L1320,51a17.21,17.21,0,0,1,1.76,1.66,20.26,20.26,0,0,1,2.81,4.41c2.74,5.39,4.08,11.26,5.55,17.08L1351.33,158c3.86,15.31,8.09,30.75,8.35,46.65.23,14.36-3.47,29.18,3.61,42.57,4.81,9.12,27.3,8.81,29.46-2.24,3.27-16.78,1.1-33.45-3-49.86-2.08-8.24-4.73-16.32-7.57-24.32-2.51-7.07-4.47-15.83-10-21.29-6-5.93-15.09-7.47-23-9a262.08,262.08,0,0,0-26.75-3.66,302.55,302.55,0,0,0-56.14.48c-4.65.47-13.25,4.38-10.48,10.39,2.89,6.25,12.88,6.45,18.46,5.9a234.62,234.62,0,0,1,41.14-.4c7.37.62,14.72,1.6,22,2.88,1.9.33,3.79.7,5.69,1.06,5.09,1-1.33-.84,2.46.54s.75.34.71.3a10.11,10.11,0,0,1,1.67,3,227.66,227.66,0,0,1,13.21,40c3.41,14.43,4.48,29.36,1.63,44l29.46-2.24c-6.43-12.18-2.11-26.87-2.58-40-.57-15.77-4.81-31.16-8.65-46.37-7.89-31.21-15.1-62.68-23.68-93.69-3.24-11.7-9.74-22.14-21.9-25.9-15.86-4.91-32.42,1.81-39.39,16.8-5.92,12.72-8.58,27.64-11.81,41.23q-5.52,23.22-9.19,46.82a586.7,586.7,0,0,0-6.56,104.67c.18,6.61,10,8.45,15,8.45,4.65,0,15.18-1.85,15-8.45Z"/>
    <path class="a"
          d="M1426.41,60.45a1054.63,1054.63,0,0,0,23.92,185.86c1,4.66,11.54,4.5,15,4.5,3.64,0,13.68.21,15-4.5a1899.62,1899.62,0,0,1,73.83-212.82c1.51-3.64-13.48-4.49-15-4.49-4.15,0-13.06-.2-15,4.49a1899.62,1899.62,0,0,0-73.83,212.82h30a1054.63,1054.63,0,0,1-23.92-185.86c-.24-6.7-30.23-6.3-30,0Z"/>
    <path class="a"
          d="M1729.78,39.64c2.15-.12-1.14,0-1.51,0-1.25,0-2.51.06-3.76.06-2.37,0-4.74,0-7.12-.13,2.94.11-2.24-.18-3.34-.28-2.1-.18-4.21-.41-6.3-.68-1.83-.23-3.65-.5-5.47-.78,2.79.43-2.47-.44-3.53-.63-3.93-.72-7.85-1.49-11.78-2.24-20.53-3.89-41.07-6-62-5.31-2.93.1-15.32.48-15,5.72l10.32,169.09q.6,9.94,1.21,19.9c.34,5.47.56,11.62,3.77,16.33,8.25,12.11,27,11.08,39.75,11.15,15,.09,30,.25,45,.11,17.91-.16,35.82-.68,53.72-1,3.55-.07,14.76-.34,15-5.71.24-5.15-12.3-5.78-15-5.72-28.07.57-56.1,1.18-84.18,1l-14.56-.08c-2.55,0-6.92.71-9.32-.06,2.77.88.58-.43-.27-1.21-3.46-3.15-3.52-8.48-3.81-12.79-.46-7-.85-13.93-1.27-20.89l-4.92-80.57L1640,35.4l-15,5.71q8.82-.3,17.64,0l1.6.07c-1.1,0-1.12,0-.07,0l3.77.27c2.38.2,4.76.45,7.14.73s4.47.59,6.7.9c2.56.36-.61-.12.9.13l3.11.54c4,.71,8,1.48,12,2.25,20,3.83,39.62,5.77,60,4.67,2.92-.16,13.28-2.09,10.48-7s-14-4.23-18.45-4Z"/>
    <path class="a"
          d="M1646.15,136.24c2.84,0,5.69,0,8.54.09,1.09,0,2.18.06,3.28.1l1,0c1.68.07,1.23.05-1.35-.09.08-.27,7.17.54,7.87.6,9.85.75,19.68.73,29.54.51,3.73-.09,14.77-.48,15-6.06.22-5.35-12.07-6.12-15-6.06-5.76.14-11.53.25-17.29.12-1,0-6-.2-3.15-.09,3,.12-1.66-.14-2.41-.2-8.66-.7-17.31-1.06-26-1.07-3.73,0-14.77.54-15,6.06s12.06,6.05,15,6.05Z"/>
    <path class="a"
          d="M2000.07,54.47c-35-15.28-81.22-11.7-112.49,10.83-10.26,7.4-19.7,17.84-22.69,30.45-2.86,12.08,2.65,23.66,12.07,31.24,7.29,5.87,15.86,9.67,24.65,12.69a142,142,0,0,0,16.2,4.41,54.94,54.94,0,0,0,18.18.64c.36,0,4.4-.51,1.26-.15l4.82-.54c4.74-.51,9.48-1,14.23-1.32,2.3-.17,4.61-.29,6.91-.4-.45,0-3.37.06-.6,0,1.47,0,3-.05,4.43,0,1.08,0,2.17,0,3.25.06-4.22-.11-.56,0,.26.06,1,.07,2.06.17,3.1.27-3.65-.33-.25,0,.43.1,1,.15,2,.32,2.92.51-2.85-.56.28.09.72.22l2.27.65c.64.21.6.18-.15-.08.58.2,1.15.42,1.71.65,16.45,7,21.69,23.7,22.15,40.53.15,5.69-.14,10.05-3.42,14.81a64.55,64.55,0,0,1-8.32,9.76,93.52,93.52,0,0,1-20.58,14.85,143.51,143.51,0,0,1-28.8,11.75c-4.92,1.42-10.48,2.73-13.84,3.36q-4.26.8-8.54,1.39c-.36,0-4.42.54-1.3.19-1.61.18-3.23.33-4.86.46-.8.07-1.61.13-2.41.18s-6.07.23-2,.14q-4.14.09-8.26,0c4,.07.06,0-.64-.06-1.52-.09-3-.23-4.55-.35-3.75-.3,2.83.46-.86-.1-1.45-.22-2.9-.42-4.34-.67l-2.12-.4c2.56.5-1.7-.41-2.14-.53-1-.25-2-.53-3-.82-.35-.1-3.67-1.18-2.46-.75a53.88,53.88,0,0,1-11.26-5.37c-5.16-3.36-12.5-3.3-18.45-2.84-1,.08-14.13,2.63-10.48,5,19.86,12.94,45.36,15.64,68.55,15,26.38-.71,52.9-5.71,77.13-16.35a124.21,124.21,0,0,0,29.1-17.45c7.2-5.93,17.34-15.28,17.85-25.22,1.09-21.48-6.16-43-27.51-51.14-26.75-10.24-57.66-5.68-85.34-2.46l18.18.64c-20.75-4.46-50.91-16.49-44-43.27,2.62-10.08,10-18.45,17.89-24.89A79.08,79.08,0,0,1,1944,55c.38-.09,3.66-.74.9-.23,1-.18,2-.37,3-.53l2-.3c3.09-.5-2.39.14.49-.06l3.09-.22c3.07-.23-3.19-.06.15,0,.69,0,1.39,0,2.09,0,3.34,0-2.89-.27.19,0a42.22,42.22,0,0,1,7.58,1.18,66.76,66.76,0,0,1,10.69,3.66c6.13,2.67,14,2.52,20.53,1.46,2.23-.37,11.37-3,5.38-5.57Z"/>
    <path class="a"
          d="M2050.85,56.77,2051,162.7c0,26.38-2.19,59.21,22.72,75.85,10.74,7.17,23.58,10.12,36.32,10.9,14.21.87,29.7-.27,42.47-7.1,25.23-13.49,29.07-46.47,32.86-71.81a662.11,662.11,0,0,0,6.94-116.69c-.14-5.08-30.13-4.74-30,0a664.12,664.12,0,0,1-4.11,95.42c-1.73,14.85-3.78,29.74-6.77,44.39-2.48,12.22-6,25-13.75,35a41.72,41.72,0,0,1-12,10.78,33.59,33.59,0,0,1-5,2.29,23.24,23.24,0,0,1-5.13,1.35,18.51,18.51,0,0,1,3,0c-3.82-.4,2,.52-1.8-.27-.46-.1-1.95-.44-2.4-.56a42.34,42.34,0,0,1-12.7-6.15c-22.2-15.66-20.62-45.17-20.65-69.38l-.14-109.93c0-4.87-30-5-30,0Z"/>
    <path class="a"
          d="M2371,56c-20.95-9.13-45.45-9.82-67.84-7.18-16.13,1.89-32.07,7.12-45.42,16.52-10.23,7.2-20,17.31-23.26,29.73-3.12,12.06,1.94,23,11.21,30.79,6.92,5.8,15.42,9.53,23.94,12.28a129.41,129.41,0,0,0,15.26,4.06c10.2,2,20.61.7,30.82-.44,5.1-.57,6.18-.7,11.26-1.1,1.17-.1,2.34-.18,3.5-.26.48,0,4.35-.21,1-.07l3.4-.13c1.71,0,1.49,0-.64,0h2.2c-4.16,0-.46,0,.34,0,3.62.1-2.93,0,.63.05,3.26,0-1.38-.19.54.05.84.11,1.67.21,2.5.34a55.54,55.54,0,0,1,9.83,2.91c16.54,7.18,22.21,24.06,22.8,41,.21,6,0,10.76-3.39,15.84a63,63,0,0,1-7.43,9.1,93.7,93.7,0,0,1-21,15.64A148.85,148.85,0,0,1,2312,237.65a173.08,173.08,0,0,1-16.82,4.23c-2.46.49-4.92.93-7.41,1.29-1.21.18-2.43.34-3.66.49-.09,0-3.69.42-1.83.23-1.21.12-2.42.2-3.63.31-1.6.1-1.62.11,0,0-.8.05-1.6.08-2.4.11-4,.22,3.25,0-.77,0h-2.36c2,0,2.2,0,.48,0-3.87-.2,2.81.27-1,0-.76-.05-1.52-.11-2.27-.18q1.74.19-.33,0c-2.23-.26-4-.51-5.8-.85a68,68,0,0,1-24.76-9.54c-1.53-1-5.31-1-6.89-1.16a99.08,99.08,0,0,0-11.56-.2c-2.89.11-6.2,0-9,.9-.65.2-2.94.57-1.51,1.5,20.55,13.39,48.29,14.06,71.94,13.41,25.5-.71,51.21-5.28,74.7-15.47a117.44,117.44,0,0,0,28.54-17.06c7.29-6.07,17.12-15,17.46-25.1.72-20.86-6.06-42-27.32-49.29-13.51-4.66-28.51-5.09-42.66-4.92-15.38.19-30.65,1.75-45.92,3.52l23.56.4c-21.11-4.53-53-17-46.47-44.48,5.18-21.89,29.13-36.73,49.46-42.12a81.21,81.21,0,0,1,9.58-1.93c3.3-.49-2.31,0,1-.11,2.9-.13-2.62.08.55,0-3.79.15-1.72.05-.87,0-4.56.09,1.1.2-2.35-.08.28,0,3.74.4,1.17.09,1,.13,2.11.26,3.16.44.41.07,3.26.69,4.49,1A73.53,73.53,0,0,1,2342,57c5.3,2.31,12.8,1.57,18.45,1.36,2.89-.1,6.2,0,9-.89.43-.14,3.18-.78,1.51-1.51Z"/>
    <path class="a"
          d="M2442.13,64.85q-8.68,90.5-10.29,181.46c-.07,3.77,29.23,4.88,30,0l13.83-88.7-19,2.8a778.05,778.05,0,0,0,102.75-3c1-.09,7.44-.53,7.43-2.5q-.15-49.48-.31-99h-30q2.23,92.48,4.48,184.94c.1,4.42,30.1,4.12,30,0q-2.25-92.47-4.48-184.94c-.11-4.35-30-4.23-30,0q.15,49.47.31,99l7.43-2.51a601.8,601.8,0,0,1-79.63,2.41c-1.88-.07-18.37-1.17-19,2.8l-13.83,88.7h30q1.6-90.88,10.29-181.46c.32-3.37-29.52-5.09-30,0Z"/>
    <path class="a"
          d="M2656.9,246.31c2.45-51.22,5.2-102.43,7.79-153.64q.81-15.93,1.59-31.86c.38-8-29.59-8.66-30,0-2.45,51.22-5.2,102.43-7.79,153.65q-.81,15.91-1.59,31.85c-.38,8,29.59,8.66,30,0Z"/>
    <path class="a"
          d="M265.29,246.31A577.18,577.18,0,0,1,285.76,76.73c1.62-5.82,3.07-11.83,5.46-17.39a27.39,27.39,0,0,1,3.19-6c.48-.63,1.36-1.26,1.81-1.89-.56.31-.52.29.14-.09,1.49-.81.63-.57-2.6.7-3.14.54-4.13-.91-6.48-.71l-.42-.36a17.21,17.21,0,0,1,1.76,1.66,20.26,20.26,0,0,1,2.81,4.41c2.74,5.39,4.08,11.26,5.55,17.08L318.17,158c3.86,15.31,8.09,30.75,8.35,46.65.23,14.36-3.47,29.18,3.61,42.57,4.81,9.12,27.3,8.81,29.46-2.24,3.27-16.78,1.1-33.45-3-49.86-2.08-8.24-4.73-16.32-7.57-24.32-2.51-7.07-4.47-15.83-10-21.29-6-5.93-15.09-7.47-23-9a262.08,262.08,0,0,0-26.75-3.66,302.55,302.55,0,0,0-56.14.48c-4.65.47-13.25,4.38-10.48,10.39,2.89,6.25,12.88,6.45,18.46,5.9a234.62,234.62,0,0,1,41.14-.4c7.37.62,14.72,1.6,22,2.88,1.9.33,3.79.7,5.69,1.06,5.09,1-1.33-.84,2.46.54s.75.34.71.3a10.11,10.11,0,0,1,1.67,3A227.66,227.66,0,0,1,328,201c3.41,14.43,4.48,29.36,1.63,44l29.46-2.24c-6.43-12.18-2.11-26.87-2.58-40-.57-15.77-4.81-31.16-8.65-46.37-7.89-31.21-15.1-62.68-23.68-93.69-3.24-11.7-9.74-22.14-21.9-25.9-15.86-4.91-32.42,1.81-39.39,16.8-5.92,12.72-8.58,27.64-11.81,41.23q-5.52,23.22-9.19,46.82a586.7,586.7,0,0,0-6.56,104.67c.18,6.61,10,8.45,15,8.45,4.65,0,15.18-1.85,15-8.45Z"/>
    <path class="a"
          d="M438.42,241.2c4.56-28.53,3.56-58.35,3.44-87.13-.13-35.68-1.05-71.34-2.13-107-.43-14-.91-28-1.31-42.07-.2-6.83-30.66-7.17-32.07,0-1.52,7.73-1.17,15.91-.93,23.74.37,11.66,1.28,23.31,2.35,34.94,1.82,19.6,3.86,39.34,7.32,58.74.68,3.82,9.11,4.39,11.77,4.62a40.21,40.21,0,0,0,18.11-2.2c48.4-19.13,75.13-70.62,123.4-89.69,5.94-2.35-1.92-5.65-4.13-6.18a42.86,42.86,0,0,0-21,.37c-25.23,7.25-46.27,23.1-66.67,39-19.43,15.16-39.33,32-63.3,39.35-3.48,1.07-6.49,3.2-2.5,5.81l46.48,30.36c13.19,8.61,26.1,17,37.69,27.75,21.53,20,40.59,44.13,53,70.85.8,1.72,6.11,2.64,7.37,2.87a48.26,48.26,0,0,0,12.36.48c2.92-.25,13.43-1.08,11.19-5.89-12.61-27.21-32.15-51.89-54.25-72-11.68-10.63-24.68-19.09-37.86-27.7l-48.27-31.53-2.51,5.81c25.13-7.69,46-23.65,66.47-39.61,19.4-15.16,39.4-31.83,63.49-38.75l-25.18-5.81c-48.4,19.13-75.14,70.61-123.4,89.69l29.88,2.42c-3.46-19.4-5.5-39.14-7.32-58.74-1.06-11.44-1.95-22.89-2.33-34.37-.27-8-.65-16.39.91-24.31H406.35c1.84,64.75,4.84,129.6,3,194.38-.39,13.93-.79,28-3,41.82-.88,5.52,30.79,8,32.07,0Z"/>
</svg>